<svg width="139" height="43" viewBox="0 0 139 43" fill="none" xmlns="http://www.w3.org/2000/svg">
<path d="M7.5 42.2266H0.867188L7.94531 8.80469H14.4844L13.6641 12.5547H13.8047C15.5391 9.92969 18.4688 8.40625 21.6562 8.40625C27.0938 8.40625 30.4453 12.3203 30.4453 18.5312C30.4453 27.6484 25.1016 34.3984 17.9766 34.3984C14.25 34.3984 11.3906 32.4062 10.4062 29.2656H10.2656L7.5 42.2266ZM16.7578 28.75C20.625 28.75 23.6484 24.7891 23.6484 19.5391C23.6484 16.0469 21.8203 13.8906 18.8672 13.8906C14.7422 13.8906 11.8359 18.2969 11.8359 23.2891C11.8359 26.5234 13.7812 28.75 16.7578 28.75ZM39.5625 34.3984C35.3203 34.3984 31.9688 31.4922 31.9688 27.4844C31.9688 22.3984 36.0938 19.3281 42.8906 19.0938L49.3594 18.8594L49.6641 17.3359C49.7578 16.9375 49.7578 16.6797 49.7578 16.3984C49.7578 14.6406 48.2812 13.5156 45.7734 13.5156C43.2422 13.5156 41.625 14.6406 41.1562 16.4219H34.8281C35.7188 11.4766 40.125 8.24219 46.2656 8.24219C52.2891 8.24219 56.3438 11.2891 56.3438 15.7188C56.3438 16.4453 56.25 17.2656 56.1562 17.8047L52.7109 34H46.2422L46.8984 30.9766H46.7578C45.3047 33.0391 42.6797 34.3984 39.5625 34.3984ZM42.2578 29.3828C45.0234 29.3828 47.4375 27.6484 48 25.2109L48.4688 23.0781L43.1484 23.2891C40.2656 23.3828 38.5078 24.625 38.5078 26.5469C38.5078 28.2578 40.0312 29.3828 42.2578 29.3828ZM57.1172 34L62.4609 8.80469H68.9062L68.0859 12.6719H68.2266C69.9375 9.88281 72.9375 8.24219 76.4297 8.24219C80.9531 8.24219 84.1875 11.2188 84.1875 15.5078C84.1875 16.3984 84.0703 17.4766 83.8594 18.5781L80.6016 34H73.9453L76.9688 19.6797C77.1328 18.8828 77.2031 18.2266 77.2031 17.6641C77.2031 15.3438 75.4688 13.8438 72.8906 13.8438C70.0312 13.8438 67.6641 15.9062 66.9609 19.0703L63.7969 34H57.1172ZM100.359 8.24219C106.922 8.24219 111.023 12.3672 111.023 17.3594C111.023 17.9688 111.023 18.0156 111.023 18.1328H104.602C104.555 15.7188 102.891 13.9141 100.102 13.9141C96.2109 13.9141 93.4922 17.8047 93.4922 23.3594C93.4922 26.7578 95.2969 28.8672 98.0625 28.8672C100.664 28.8672 102.586 27.3203 103.336 24.8359H109.781C108.797 30.5312 103.969 34.5391 97.8281 34.5391C90.8672 34.5391 86.7656 30.1562 86.7656 23.6406C86.7656 14.5 92.1562 8.24219 100.359 8.24219ZM111.305 34L118.5 0.179688H125.18L122.484 12.6719H122.625C124.266 10.0938 127.102 8.33594 130.781 8.33594C135.516 8.33594 138.609 11.4766 138.609 15.5547C138.609 16.4688 138.492 17.5 138.281 18.5781L134.977 34H128.32L131.391 19.6797C131.555 18.9531 131.625 18.3203 131.625 17.7344C131.625 15.4609 129.914 13.8438 127.242 13.8438C124.242 13.8438 121.828 15.9766 121.148 19.0703L117.984 34H111.305Z" fill="#2B2B2C"/>
</svg>
